<svg width="512" height="512" viewBox="0 0 512 512" fill="none" xmlns="http://www.w3.org/2000/svg">
  <defs>
    <linearGradient id="bg" x1="48" y1="24" x2="464" y2="488" gradientUnits="userSpaceOnUse">
      <stop stop-color="#232731"/>
      <stop offset="1" stop-color="#121419"/>
    </linearGradient>
    <radialGradient id="glow" cx="0" cy="0" r="1" gradientUnits="userSpaceOnUse" gradientTransform="translate(256 188) rotate(90) scale(196 204)">
      <stop stop-color="#A455FF" stop-opacity="0.28"/>
      <stop offset="1" stop-color="#A455FF" stop-opacity="0"/>
    </radialGradient>
    <linearGradient id="accent" x1="160" y1="144" x2="366" y2="344" gradientUnits="userSpaceOnUse">
      <stop stop-color="#C68EFF"/>
      <stop offset="1" stop-color="#A455FF"/>
    </linearGradient>
    <filter id="soft" x="98" y="106" width="316" height="296" filterUnits="userSpaceOnUse" color-interpolation-filters="sRGB">
      <feGaussianBlur stdDeviation="18"/>
    </filter>
  </defs>

  <rect x="0" y="0" width="512" height="512" rx="128" fill="url(#bg)"/>
  <rect x="28" y="28" width="456" height="456" rx="114" fill="url(#glow)"/>

  <path d="M150 336V176L210 246L256 192L302 246L362 176V336" stroke="#A455FF" stroke-opacity="0.16" stroke-width="34" stroke-linecap="round" stroke-linejoin="round" filter="url(#soft)"/>
  <path d="M150 336V176L210 246L256 192L302 246L362 176V336" stroke="url(#accent)" stroke-width="20" stroke-linecap="round" stroke-linejoin="round"/>

  <path d="M154 128C177 109 211 96 256 96C341 96 408 151 414 231" stroke="#FFFFFF" stroke-opacity="0.14" stroke-width="10" stroke-linecap="round"/>
  <circle cx="406" cy="226" r="14" fill="#A455FF"/>
  <circle cx="406" cy="226" r="25" fill="#A455FF" fill-opacity="0.12"/>
</svg>
